<mxfile host="app.diagrams.net" agent="Mozilla/5.0 (Windows NT 10.0; Win64; x64) AppleWebKit/537.36 (KHTML, like Gecko) Chrome/134.0.0.0 Safari/537.36" version="26.1.0">
  <diagram id="ZHx4npevQb2E18cqrMWn" name="페이지-1">
    <mxGraphModel dx="2791" dy="1914" grid="1" gridSize="10" guides="1" tooltips="1" connect="1" arrows="1" fold="1" page="0" pageScale="1" pageWidth="1600" pageHeight="1200" background="none" math="0" shadow="0">
      <root>
        <mxCell id="0" />
        <mxCell id="1" parent="0" />
        <mxCell id="node53" value="&lt;p style=&quot;margin:0px;margin-top:4px;text-align:center;&quot;&gt;&lt;b&gt;AdminController&lt;/b&gt;&lt;/p&gt;&lt;hr size=&quot;1&quot;/&gt;&lt;p style=&quot;margin:0 0 0 4px;line-height:1.6;&quot;&gt;+ updateMember(Long, MemberUpdateDto): ResponseEntity&amp;lt;String&amp;gt;&lt;br/&gt;+ getAllComments(Pageable): ResponseEntity&amp;lt;Page&amp;lt;ResCommentDto&amp;gt;&amp;gt;&lt;br/&gt;+ deleteReservation(Long): ResponseEntity&amp;lt;String&amp;gt;&lt;br/&gt;+ getAllMembers(Pageable): ResponseEntity&amp;lt;Page&amp;lt;MemberResponseDto&amp;gt;&amp;gt;&lt;br/&gt;+ getAllReviews(Pageable): ResponseEntity&amp;lt;Page&amp;lt;ResReviewDetailDto&amp;gt;&amp;gt;&lt;br/&gt;+ deleteMember(Long): ResponseEntity&amp;lt;String&amp;gt;&lt;br/&gt;+ deleteReview(Long): ResponseEntity&amp;lt;String&amp;gt;&lt;br/&gt;+ getAllReservations(Pageable): ResponseEntity&amp;lt;Page&amp;lt;ResReservationDto&amp;gt;&amp;gt;&lt;br/&gt;+ deleteComment(Long): ResponseEntity&amp;lt;String&amp;gt;&lt;/p&gt;&lt;hr size=&quot;1&quot;/&gt;&lt;p style=&quot;margin:0 0 0 4px;line-height:1.6;&quot;&gt; chattingCount: ResponseEntity&amp;lt;Long&amp;gt;&lt;br/&gt; reviewCount: ResponseEntity&amp;lt;Long&amp;gt;&lt;br/&gt; campSiteCount: ResponseEntity&amp;lt;Long&amp;gt;&lt;br/&gt; genderRatio: ResponseEntity&amp;lt;Map&amp;lt;String, Long&amp;gt;&amp;gt;&lt;br/&gt; disabledMemberCount: ResponseEntity&amp;lt;Long&amp;gt;&lt;br/&gt; securityKey: ResponseEntity&amp;lt;String&amp;gt;&lt;br/&gt; reservationCount: ResponseEntity&amp;lt;Long&amp;gt;&lt;br/&gt; commentCount: ResponseEntity&amp;lt;Long&amp;gt;&lt;br/&gt; memberCount: ResponseEntity&amp;lt;Long&amp;gt;&lt;/p&gt;" style="verticalAlign=top;align=left;overflow=fill;fontSize=14;fontFamily=Helvetica;html=1;rounded=0;shadow=0;comic=0;labelBackgroundColor=none;strokeWidth=1;" parent="1" vertex="1">
          <mxGeometry x="4604" y="4077" width="446" height="473" as="geometry" />
        </mxCell>
        <mxCell id="node37" value="&lt;p style=&quot;margin:0px;margin-top:4px;text-align:center;&quot;&gt;&lt;b&gt;AdminRegisterDto&lt;/b&gt;&lt;/p&gt;&lt;hr size=&quot;1&quot;/&gt;&lt;p style=&quot;margin:0 0 0 4px;line-height:1.6;&quot;&gt;- password: String&lt;br/&gt;- tel: String&lt;br/&gt;- email: String&lt;br/&gt;- name: String&lt;br/&gt;- role: Role&lt;br/&gt;- securityKey: String&lt;br/&gt;- gender: String&lt;br/&gt;- join_date: Date&lt;/p&gt;&lt;hr size=&quot;1&quot;/&gt;&lt;p style=&quot;margin:0 0 0 4px;line-height:1.6;&quot;&gt;+ builder(): AdminRegisterDtoBuilder&lt;/p&gt;&lt;hr size=&quot;1&quot;/&gt;&lt;p style=&quot;margin:0 0 0 4px;line-height:1.6;&quot;&gt; name: String&lt;br/&gt; securityKey: String&lt;br/&gt; password: String&lt;br/&gt; role: Role&lt;br/&gt; gender: String&lt;br/&gt; join_date: Date&lt;br/&gt; email: String&lt;br/&gt; tel: String&lt;/p&gt;" style="verticalAlign=top;align=left;overflow=fill;fontSize=14;fontFamily=Helvetica;html=1;rounded=0;shadow=0;comic=0;labelBackgroundColor=none;strokeWidth=1;" parent="1" vertex="1">
          <mxGeometry x="4602" y="-119" width="232" height="450" as="geometry" />
        </mxCell>
        <mxCell id="node79" value="&lt;p style=&quot;margin:0px;margin-top:4px;text-align:center;&quot;&gt;&lt;b&gt;AdminService&lt;/b&gt;&lt;/p&gt;&lt;hr size=&quot;1&quot;/&gt;&lt;p style=&quot;margin:0 0 0 4px;line-height:1.6;&quot;&gt;+ updateMember(Long, MemberDto): void&lt;br/&gt;+ deleteMember(Long): void&lt;/p&gt;&lt;hr size=&quot;1&quot;/&gt;&lt;p style=&quot;margin:0 0 0 4px;line-height:1.6;&quot;&gt; allMembers: List&amp;lt;Member&amp;gt;&lt;/p&gt;" style="verticalAlign=top;align=left;overflow=fill;fontSize=14;fontFamily=Helvetica;html=1;rounded=0;shadow=0;comic=0;labelBackgroundColor=none;strokeWidth=1;" parent="1" vertex="1">
          <mxGeometry x="7574" y="2682" width="266" height="122" as="geometry" />
        </mxCell>
        <mxCell id="node46" value="&lt;p style=&quot;margin:0px;margin-top:4px;text-align:center;&quot;&gt;&lt;b&gt;CampController&lt;/b&gt;&lt;/p&gt;&lt;hr size=&quot;1&quot;/&gt;&lt;p style=&quot;margin:0 0 0 4px;line-height:1.6;&quot;&gt;+ write(String, List&amp;lt;MultipartFile&amp;gt;, List&amp;lt;MultipartFile&amp;gt;): ResponseEntity&amp;lt;ResCampWriteDto&amp;gt;&lt;br/&gt;+ update(Long, CampUpdateDto): ResponseEntity&amp;lt;ResCampDetailDto&amp;gt;&lt;br/&gt;+ getCampReivew(Long, Pageable): ResponseEntity&amp;lt;Page&amp;lt;ResReviewListDto&amp;gt;&amp;gt;&lt;br/&gt;+ delete(Long): ResponseEntity&amp;lt;String&amp;gt;&lt;br/&gt;+ detail(Long): ResponseEntity&amp;lt;ResCampDetailDto&amp;gt;&lt;br/&gt;+ campList(Pageable): ResponseEntity&amp;lt;Page&amp;lt;ResCampListDto&amp;gt;&amp;gt;&lt;br/&gt;+ CampDataFromOpenApi(Long): String&lt;br/&gt;+ adminCampDetail(Long): ResponseEntity&amp;lt;ResCampDetailDto&amp;gt;&lt;br/&gt;+ searchCamp(String, List&amp;lt;String&amp;gt;, Pageable): ResponseEntity&amp;lt;Page&amp;lt;ResCampListDto&amp;gt;&amp;gt;&lt;br/&gt;+ downLikeCount(Long): void&lt;br/&gt;+ upLikeCount(Long): void&lt;/p&gt;" style="verticalAlign=top;align=left;overflow=fill;fontSize=14;fontFamily=Helvetica;html=1;rounded=0;shadow=0;comic=0;labelBackgroundColor=none;strokeWidth=1;" parent="1" vertex="1">
          <mxGeometry x="2106" y="4162" width="534" height="304" as="geometry" />
        </mxCell>
        <mxCell id="node30" value="&lt;p style=&quot;margin:0px;margin-top:4px;text-align:center;&quot;&gt;&lt;i&gt;&amp;lt;&amp;lt;interface&amp;gt;&amp;gt;&lt;/i&gt;&lt;br/&gt;&lt;b&gt;CampRepository&lt;/b&gt;&lt;/p&gt;&lt;hr size=&quot;1&quot;/&gt;&lt;p style=&quot;margin:0 0 0 4px;line-height:1.6;&quot;&gt;+ findAll(Pageable): Page&amp;lt;Campsite&amp;gt;&lt;br/&gt;+ findById(Long): Optional&amp;lt;Campsite&amp;gt;&lt;/p&gt;" style="verticalAlign=top;align=left;overflow=fill;fontSize=14;fontFamily=Helvetica;html=1;rounded=0;shadow=0;comic=0;labelBackgroundColor=none;strokeWidth=1;" parent="1" vertex="1">
          <mxGeometry x="4591" y="1702" width="245" height="110" as="geometry" />
        </mxCell>
        <mxCell id="node83" value="&lt;p style=&quot;margin:0px;margin-top:4px;text-align:center;&quot;&gt;&lt;b&gt;CampService&lt;/b&gt;&lt;/p&gt;&lt;hr size=&quot;1&quot;/&gt;&lt;p style=&quot;margin:0 0 0 4px;line-height:1.6;&quot;&gt;+ write(CampWriteDto): ResCampWriteDto&lt;br/&gt;+ getAllCamps(Pageable): Page&amp;lt;ResCampListDto&amp;gt;&lt;br/&gt;+ detail(Long): ResCampDetailDto&lt;br/&gt;+ delete(Long): void&lt;br/&gt;+ getFilteredCamps(String, List&amp;lt;String&amp;gt;, Pageable): Page&amp;lt;ResCampListDto&amp;gt;&lt;br/&gt;+ downLikeCount(Long): ResCampDetailDto&lt;br/&gt;+ CampDataFromOpenApi(Long): void&lt;br/&gt;+ update(Long, CampUpdateDto): ResCampDetailDto&lt;br/&gt;+ upLikeCount(Long): ResCampDetailDto&lt;/p&gt;" style="verticalAlign=top;align=left;overflow=fill;fontSize=14;fontFamily=Helvetica;html=1;rounded=0;shadow=0;comic=0;labelBackgroundColor=none;strokeWidth=1;" parent="1" vertex="1">
          <mxGeometry x="1407" y="3396" width="447" height="256" as="geometry" />
        </mxCell>
        <mxCell id="node93" value="&lt;p style=&quot;margin:0px;margin-top:4px;text-align:center;&quot;&gt;&lt;b&gt;CampUpdateDto&lt;/b&gt;&lt;/p&gt;&lt;hr size=&quot;1&quot;/&gt;&lt;p style=&quot;margin:0 0 0 4px;line-height:1.6;&quot;&gt;- campTel: String&lt;br/&gt;- campAddress2: String&lt;br/&gt;- campInfo: String&lt;br/&gt;- pet: Boolean&lt;br/&gt;- campAddressGungu: String&lt;br/&gt;- wifi: Boolean&lt;br/&gt;- totalCapacity: Integer&lt;br/&gt;- campAddress1: String&lt;br/&gt;- campName: String&lt;br/&gt;- swimming: Boolean&lt;br/&gt;- campAddressDo: String&lt;br/&gt;- hotWater: Boolean&lt;br/&gt;- electric: Boolean&lt;br/&gt;- fireWood: Boolean&lt;br/&gt;- campMapX: String&lt;br/&gt;- campMapY: String&lt;br/&gt;- playGround: Boolean&lt;br/&gt;- toilet: Integer&lt;/p&gt;&lt;hr size=&quot;1&quot;/&gt;&lt;p style=&quot;margin:0 0 0 4px;line-height:1.6;&quot;&gt;+ builder(): CampUpdateDtoBuilder&lt;/p&gt;&lt;hr size=&quot;1&quot;/&gt;&lt;p style=&quot;margin:0 0 0 4px;line-height:1.6;&quot;&gt; campMapX: String&lt;br/&gt; wifi: Boolean&lt;br/&gt; pet: Boolean&lt;br/&gt; campInfo: String&lt;br/&gt; electric: Boolean&lt;br/&gt; campAddressDo: String&lt;br/&gt; campMapY: String&lt;br/&gt; campName: String&lt;br/&gt; hotWater: Boolean&lt;br/&gt; campTel: String&lt;br/&gt; campAddressGungu: String&lt;br/&gt; fireWood: Boolean&lt;br/&gt; toilet: Integer&lt;br/&gt; swimming: Boolean&lt;br/&gt; campAddress1: String&lt;br/&gt; campAddress2: String&lt;br/&gt; playGround: Boolean&lt;br/&gt; totalCapacity: Integer&lt;/p&gt;" style="verticalAlign=top;align=left;overflow=fill;fontSize=14;fontFamily=Helvetica;html=1;rounded=0;shadow=0;comic=0;labelBackgroundColor=none;strokeWidth=1;" parent="1" vertex="1">
          <mxGeometry x="1704" y="4595" width="224" height="930" as="geometry" />
        </mxCell>
        <mxCell id="node48" value="&lt;p style=&quot;margin:0px;margin-top:4px;text-align:center;&quot;&gt;&lt;b&gt;CampWriteDto&lt;/b&gt;&lt;/p&gt;&lt;hr size=&quot;1&quot;/&gt;&lt;p style=&quot;margin:0 0 0 4px;line-height:1.6;&quot;&gt;- campAddress1: String&lt;br/&gt;- campMapX: String&lt;br/&gt;- hotWater: Boolean&lt;br/&gt;- campAddressDo: String&lt;br/&gt;- electric: Boolean&lt;br/&gt;- pet: Boolean&lt;br/&gt;- wifi: Boolean&lt;br/&gt;- campHit: Integer&lt;br/&gt;- campName: String&lt;br/&gt;- campMapY: String&lt;br/&gt;- swimming: Boolean&lt;br/&gt;- thumb: List&amp;lt;MultipartFile&amp;gt;&lt;br/&gt;- totalCapacity: Integer&lt;br/&gt;- campLike: Integer&lt;br/&gt;- fireWood: Boolean&lt;br/&gt;- playGround: Boolean&lt;br/&gt;- campAddressGungu: String&lt;br/&gt;- campAddress2: String&lt;br/&gt;- toilet: Integer&lt;br/&gt;- images: List&amp;lt;MultipartFile&amp;gt;&lt;br/&gt;- campTel: String&lt;br/&gt;- campInfo: String&lt;/p&gt;&lt;hr size=&quot;1&quot;/&gt;&lt;p style=&quot;margin:0 0 0 4px;line-height:1.6;&quot;&gt;+ builder(): CampWriteDtoBuilder&lt;br/&gt;+ ofEntity(CampWriteDto): Campsite&lt;/p&gt;&lt;hr size=&quot;1&quot;/&gt;&lt;p style=&quot;margin:0 0 0 4px;line-height:1.6;&quot;&gt; campMapX: String&lt;br/&gt; wifi: Boolean&lt;br/&gt; pet: Boolean&lt;br/&gt; campInfo: String&lt;br/&gt; electric: Boolean&lt;br/&gt; campAddressDo: String&lt;br/&gt; campMapY: String&lt;br/&gt; campName: String&lt;br/&gt; campHit: Integer&lt;br/&gt; hotWater: Boolean&lt;br/&gt; campTel: String&lt;br/&gt; thumb: List&amp;lt;MultipartFile&amp;gt;&lt;br/&gt; campAddressGungu: String&lt;br/&gt; fireWood: Boolean&lt;br/&gt; toilet: Integer&lt;br/&gt; swimming: Boolean&lt;br/&gt; campAddress1: String&lt;br/&gt; campLike: Integer&lt;br/&gt; campAddress2: String&lt;br/&gt; playGround: Boolean&lt;br/&gt; images: List&amp;lt;MultipartFile&amp;gt;&lt;br/&gt; totalCapacity: Integer&lt;/p&gt;" style="verticalAlign=top;align=left;overflow=fill;fontSize=14;fontFamily=Helvetica;html=1;rounded=0;shadow=0;comic=0;labelBackgroundColor=none;strokeWidth=1;" parent="1" vertex="1">
          <mxGeometry x="1119" y="4595" width="231" height="1146" as="geometry" />
        </mxCell>
        <mxCell id="node33" value="&lt;p style=&quot;margin:0px;margin-top:4px;text-align:center;&quot;&gt;&lt;b&gt;Campsite&lt;/b&gt;&lt;/p&gt;&lt;hr size=&quot;1&quot;/&gt;&lt;p style=&quot;margin:0 0 0 4px;line-height:1.6;&quot;&gt;- campAddress1: String&lt;br/&gt;- electric: Boolean&lt;br/&gt;- campMapX: String&lt;br/&gt;- swimming: Boolean&lt;br/&gt;- campHit: Integer&lt;br/&gt;- campAddressDo: String&lt;br/&gt;- campLike: Integer&lt;br/&gt;- campName: String&lt;br/&gt;- campAddressGungu: String&lt;br/&gt;- wifi: Boolean&lt;br/&gt;- campAddress2: String&lt;br/&gt;- toilet: Integer&lt;br/&gt;- pet: Boolean&lt;br/&gt;- fireWood: Boolean&lt;br/&gt;- playGround: Boolean&lt;br/&gt;- campInfo: String&lt;br/&gt;- thumb: List&amp;lt;CampThumbFiles&amp;gt;&lt;br/&gt;- apiContentId: String&lt;br/&gt;- campMapY: String&lt;br/&gt;- hotWater: Boolean&lt;br/&gt;- totalCapacity: Integer&lt;br/&gt;- images: List&amp;lt;CampImageFiles&amp;gt;&lt;br/&gt;- campTel: String&lt;br/&gt;- id: Long&lt;/p&gt;&lt;hr size=&quot;1&quot;/&gt;&lt;p style=&quot;margin:0 0 0 4px;line-height:1.6;&quot;&gt;+ builder(): CampsiteBuilder&lt;br/&gt;+ upViewCount(): void&lt;br/&gt;+ update(String, String, String, String, String, String, String, String, String, Integer, Boolean, Boolean, Boolean, Boolean, Boolean, Boolean, Boolean, Integer): void&lt;br/&gt;+ downLikeCount(): void&lt;br/&gt;+ upLikeCount(): void&lt;/p&gt;&lt;hr size=&quot;1&quot;/&gt;&lt;p style=&quot;margin:0 0 0 4px;line-height:1.6;&quot;&gt; campMapX: String&lt;br/&gt; wifi: Boolean&lt;br/&gt; pet: Boolean&lt;br/&gt; campInfo: String&lt;br/&gt; electric: Boolean&lt;br/&gt; id: Long&lt;br/&gt; campAddressDo: String&lt;br/&gt; campMapY: String&lt;br/&gt; campName: String&lt;br/&gt; campHit: Integer&lt;br/&gt; hotWater: Boolean&lt;br/&gt; campTel: String&lt;br/&gt; apiContentId: String&lt;br/&gt; thumb: List&amp;lt;CampThumbFiles&amp;gt;&lt;br/&gt; campAddressGungu: String&lt;br/&gt; fireWood: Boolean&lt;br/&gt; toilet: Integer&lt;br/&gt; swimming: Boolean&lt;br/&gt; campAddress1: String&lt;br/&gt; campLike: Integer&lt;br/&gt; campAddress2: String&lt;br/&gt; playGround: Boolean&lt;br/&gt; images: List&amp;lt;CampImageFiles&amp;gt;&lt;br/&gt; totalCapacity: Integer&lt;/p&gt;" style="verticalAlign=top;align=left;overflow=fill;fontSize=14;fontFamily=Helvetica;html=1;rounded=0;shadow=0;comic=0;labelBackgroundColor=none;strokeWidth=1;" parent="1" vertex="1">
          <mxGeometry x="2383" y="2490" width="342" height="1261" as="geometry" />
        </mxCell>
        <mxCell id="node59" value="&lt;p style=&quot;margin:0px;margin-top:4px;text-align:center;&quot;&gt;&lt;b&gt;ChatController&lt;/b&gt;&lt;/p&gt;&lt;hr size=&quot;1&quot;/&gt;&lt;p style=&quot;margin:0 0 0 4px;line-height:1.6;&quot;&gt;+ getChatMessages(Long, Long): ResponseEntity&amp;lt;List&amp;lt;ChatResponseDto&amp;gt;&amp;gt;&lt;br/&gt;+ sendMessage(ChatRequestDto): ChatResponseDto&lt;br/&gt;+ startChat(Map&amp;lt;String, Long&amp;gt;): ResponseEntity&amp;lt;String&amp;gt;&lt;br/&gt;+ checkChatExists(Long, Long): ResponseEntity&amp;lt;Map&amp;lt;String, Boolean&amp;gt;&amp;gt;&lt;br/&gt;+ getChatList(Long, Long): ResponseEntity&amp;lt;List&amp;lt;ChatResponseDto&amp;gt;&amp;gt;&lt;/p&gt;" style="verticalAlign=top;align=left;overflow=fill;fontSize=14;fontFamily=Helvetica;html=1;rounded=0;shadow=0;comic=0;labelBackgroundColor=none;strokeWidth=1;" parent="1" vertex="1">
          <mxGeometry x="6315" y="3444" width="443" height="160" as="geometry" />
        </mxCell>
        <mxCell id="node65" value="&lt;p style=&quot;margin:0px;margin-top:4px;text-align:center;&quot;&gt;&lt;b&gt;ChatMessage&lt;/b&gt;&lt;/p&gt;&lt;hr size=&quot;1&quot;/&gt;&lt;p style=&quot;margin:0 0 0 4px;line-height:1.6;&quot;&gt;- member1Id: Long&lt;br/&gt;- member2Id: Long&lt;br/&gt;- isNew: Boolean&lt;br/&gt;- createAt: Date&lt;br/&gt;- chatMsgId: Long&lt;br/&gt;- content: String&lt;br/&gt;- memberName: String&lt;/p&gt;&lt;hr size=&quot;1&quot;/&gt;&lt;p style=&quot;margin:0 0 0 4px;line-height:1.6;&quot;&gt;+ builder(): ChatMessageBuilder&lt;/p&gt;&lt;hr size=&quot;1&quot;/&gt;&lt;p style=&quot;margin:0 0 0 4px;line-height:1.6;&quot;&gt; content: String&lt;br/&gt; createAt: Date&lt;br/&gt; isNew: Boolean&lt;br/&gt; member1Id: Long&lt;br/&gt; member2Id: Long&lt;br/&gt; memberName: String&lt;br/&gt; chatMsgId: Long&lt;/p&gt;" style="verticalAlign=top;align=left;overflow=fill;fontSize=14;fontFamily=Helvetica;html=1;rounded=0;shadow=0;comic=0;labelBackgroundColor=none;strokeWidth=1;" parent="1" vertex="1">
          <mxGeometry x="3188" y="4595" width="205" height="402" as="geometry" />
        </mxCell>
        <mxCell id="node0" value="&lt;p style=&quot;margin:0px;margin-top:4px;text-align:center;&quot;&gt;&lt;i&gt;&amp;lt;&amp;lt;interface&amp;gt;&amp;gt;&lt;/i&gt;&lt;br/&gt;&lt;b&gt;ChatMessageRepository&lt;/b&gt;&lt;/p&gt;&lt;hr size=&quot;1&quot;/&gt;&lt;p style=&quot;margin:0 0 0 4px;line-height:1.6;&quot;&gt;+ findLatestMessagesByUser(Long): List&amp;lt;ChatMessage&amp;gt;&lt;br/&gt;+ existsByMember1IdAndMember2Id(Long, Long): boolean&lt;br/&gt;+ findChatMessages(Long, Long): List&amp;lt;ChatMessage&amp;gt;&lt;/p&gt;" style="verticalAlign=top;align=left;overflow=fill;fontSize=14;fontFamily=Helvetica;html=1;rounded=0;shadow=0;comic=0;labelBackgroundColor=none;strokeWidth=1;" parent="1" vertex="1">
          <mxGeometry x="5684" y="1690" width="352" height="140" as="geometry" />
        </mxCell>
        <mxCell id="node11" value="&lt;p style=&quot;margin:0px;margin-top:4px;text-align:center;&quot;&gt;&lt;b&gt;ChatService&lt;/b&gt;&lt;/p&gt;&lt;hr size=&quot;1&quot;/&gt;&lt;p style=&quot;margin:0 0 0 4px;line-height:1.6;&quot;&gt;+ getLatestMessages(Long): List&amp;lt;ChatResponseDto&amp;gt;&lt;br/&gt;+ findChatMessages(Long, Long): List&amp;lt;ChatResponseDto&amp;gt;&lt;br/&gt;+ doesChatExist(Long, Long): boolean&lt;br/&gt;+ sendMessage(ChatRequestDto): ChatResponseDto&lt;/p&gt;" style="verticalAlign=top;align=left;overflow=fill;fontSize=14;fontFamily=Helvetica;html=1;rounded=0;shadow=0;comic=0;labelBackgroundColor=none;strokeWidth=1;" parent="1" vertex="1">
          <mxGeometry x="6362" y="2670" width="349" height="147" as="geometry" />
        </mxCell>
        <mxCell id="node47" value="&lt;p style=&quot;margin:0px;margin-top:4px;text-align:center;&quot;&gt;&lt;b&gt;JwtAuthenticationEntryPoint&lt;/b&gt;&lt;/p&gt;&lt;hr size=&quot;1&quot;/&gt;&lt;p style=&quot;margin:0 0 0 4px;line-height:1.6;&quot;&gt;+ commence(HttpServletRequest, HttpServletResponse, AuthenticationException): void&lt;/p&gt;" style="verticalAlign=top;align=left;overflow=fill;fontSize=14;fontFamily=Helvetica;html=1;rounded=0;shadow=0;comic=0;labelBackgroundColor=none;strokeWidth=1;" parent="1" vertex="1">
          <mxGeometry x="8104" y="2706" width="406" height="69" as="geometry" />
        </mxCell>
        <mxCell id="node82" value="&lt;p style=&quot;margin:0px;margin-top:4px;text-align:center;&quot;&gt;&lt;b&gt;JwtAuthenticationFilter&lt;/b&gt;&lt;/p&gt;&lt;hr size=&quot;1&quot;/&gt;&lt;p style=&quot;margin:0 0 0 4px;line-height:1.6;&quot;&gt;# doFilterInternal(HttpServletRequest, HttpServletResponse, FilterChain): void&lt;/p&gt;" style="verticalAlign=top;align=left;overflow=fill;fontSize=14;fontFamily=Helvetica;html=1;rounded=0;shadow=0;comic=0;labelBackgroundColor=none;strokeWidth=1;" parent="1" vertex="1">
          <mxGeometry x="8530" y="2706" width="383" height="69" as="geometry" />
        </mxCell>
        <mxCell id="node7" value="&lt;p style=&quot;margin:0px;margin-top:4px;text-align:center;&quot;&gt;&lt;b&gt;JwtTokenUtil&lt;/b&gt;&lt;/p&gt;&lt;hr size=&quot;1&quot;/&gt;&lt;p style=&quot;margin:0 0 0 4px;line-height:1.6;&quot;&gt;+ generateToken(UserDetails): String&lt;br/&gt;+ getClaimFromToken(String, Function&amp;lt;Claims, T&amp;gt;): T&lt;br/&gt;+ getExpirationDateFromToken(String): Date&lt;br/&gt;+ validateToken(String, UserDetails): Boolean&lt;br/&gt;+ invalidateToken(String): void&lt;br/&gt;+ isTokenInvalidated(String): boolean&lt;br/&gt;- getAllClaimsFromToken(String): Claims&lt;br/&gt;+ getUsernameFromToken(String): String&lt;br/&gt;- doGenerateToken(Map&amp;lt;String, Object&amp;gt;, String): String&lt;br/&gt;- isTokenExpired(String): Boolean&lt;/p&gt;" style="verticalAlign=top;align=left;overflow=fill;fontSize=14;fontFamily=Helvetica;html=1;rounded=0;shadow=0;comic=0;labelBackgroundColor=none;strokeWidth=1;" parent="1" vertex="1">
          <mxGeometry x="7813" y="1606" width="340" height="280" as="geometry" />
        </mxCell>
        <mxCell id="node12" value="&lt;p style=&quot;margin:0px;margin-top:4px;text-align:center;&quot;&gt;&lt;b&gt;Member&lt;/b&gt;&lt;/p&gt;&lt;hr size=&quot;1&quot;/&gt;&lt;p style=&quot;margin:0 0 0 4px;line-height:1.6;&quot;&gt;- profile: boolean&lt;br/&gt;- password: String&lt;br/&gt;- join_date: Date&lt;br/&gt;- token: String&lt;br/&gt;- delete_date: Date&lt;br/&gt;- id: Long&lt;br/&gt;- tel: String&lt;br/&gt;- profile_url: String&lt;br/&gt;- address_detail: String&lt;br/&gt;- name: String&lt;br/&gt;- email: String&lt;br/&gt;- role: Role&lt;br/&gt;- enable: boolean&lt;br/&gt;- disabled_date: Date&lt;br/&gt;- postcode: String&lt;br/&gt;- address: String&lt;br/&gt;- gender: String&lt;/p&gt;&lt;hr size=&quot;1&quot;/&gt;&lt;p style=&quot;margin:0 0 0 4px;line-height:1.6;&quot;&gt;+ builder(): MemberBuilder&lt;br/&gt;+ update(String, MemberUpdateDto): void&lt;/p&gt;&lt;hr size=&quot;1&quot;/&gt;&lt;p style=&quot;margin:0 0 0 4px;line-height:1.6;&quot;&gt; enable: boolean&lt;br/&gt; role: Role&lt;br/&gt; gender: String&lt;br/&gt; join_date: Date&lt;br/&gt; token: String&lt;br/&gt; credentialsNonExpired: boolean&lt;br/&gt; id: Long&lt;br/&gt; accountNonExpired: boolean&lt;br/&gt; tel: String&lt;br/&gt; authorities: Collection&amp;lt;GrantedAuthority&amp;gt;&lt;br/&gt; delete_date: Date&lt;br/&gt; address: String&lt;br/&gt; enabled: boolean&lt;br/&gt; name: String&lt;br/&gt; accountNonLocked: boolean&lt;br/&gt; password: String&lt;br/&gt; email: String&lt;br/&gt; profile_url: String&lt;br/&gt; postcode: String&lt;br/&gt; profile: boolean&lt;br/&gt; username: String&lt;br/&gt; address_detail: String&lt;br/&gt; disabled_date: Date&lt;/p&gt;" style="verticalAlign=top;align=left;overflow=fill;fontSize=14;fontFamily=Helvetica;html=1;rounded=0;shadow=0;comic=0;labelBackgroundColor=none;strokeWidth=1;" parent="1" vertex="1">
          <mxGeometry x="3979" y="-419" width="272" height="1050" as="geometry" />
        </mxCell>
        <mxCell id="node50" value="&lt;p style=&quot;margin:0px;margin-top:4px;text-align:center;&quot;&gt;&lt;b&gt;MemberController&lt;/b&gt;&lt;/p&gt;&lt;hr size=&quot;1&quot;/&gt;&lt;p style=&quot;margin:0 0 0 4px;line-height:1.6;&quot;&gt;+ login(MemberLoginDto): ResponseEntity&amp;lt;?&amp;gt;&lt;br/&gt;+ getUserInfoById(Long): ResponseEntity&amp;lt;MemberResponseDto&amp;gt;&lt;br/&gt;+ fileUpload(Member, MultipartFile): ResponseEntity&amp;lt;String&amp;gt;&lt;br/&gt;+ getProfileByUserId(Long): ResponseEntity&amp;lt;String&amp;gt;&lt;br/&gt;+ join(MemberRegisterDto): ResponseEntity&amp;lt;String&amp;gt;&lt;br/&gt;+ getUser(Long): ResponseEntity&amp;lt;MemberResponseDto&amp;gt;&lt;br/&gt;+ userUpdate(Member, MemberUpdateDto): ResponseEntity&amp;lt;MemberResponseDto&amp;gt;&lt;br/&gt;+ googleLogin(Map&amp;lt;String, String&amp;gt;): ResponseEntity&amp;lt;?&amp;gt;&lt;br/&gt;+ emailDuplicate(MemberRegisterDto): ResponseEntity&amp;lt;Boolean&amp;gt;&lt;br/&gt;+ userUnable(Member): ResponseEntity&amp;lt;String&amp;gt;&lt;br/&gt;+ deleteProfile(Member): ResponseEntity&amp;lt;String&amp;gt;&lt;br/&gt;+ getMyInfo(Member): ResponseEntity&amp;lt;MemberResponseDto&amp;gt;&lt;br/&gt;+ checkKey(Map&amp;lt;String, String&amp;gt;): boolean&lt;br/&gt;+ getProfileImagePath(Long): ResponseEntity&amp;lt;String&amp;gt;&lt;/p&gt;" style="verticalAlign=top;align=left;overflow=fill;fontSize=14;fontFamily=Helvetica;html=1;rounded=0;shadow=0;comic=0;labelBackgroundColor=none;strokeWidth=1;" parent="1" vertex="1">
          <mxGeometry x="6530" y="4126" width="488" height="376" as="geometry" />
        </mxCell>
        <mxCell id="node14" value="&lt;p style=&quot;margin:0px;margin-top:4px;text-align:center;&quot;&gt;&lt;b&gt;MemberException&lt;/b&gt;&lt;/p&gt;&lt;hr size=&quot;1&quot;/&gt;&lt;p style=&quot;margin:0 0 0 4px;line-height:1.6;&quot;&gt;- status: HttpStatus&lt;br/&gt;- message: String&lt;/p&gt;&lt;hr size=&quot;1&quot;/&gt;&lt;p style=&quot;margin:0 0 0 4px;line-height:1.6;&quot;&gt; message: String&lt;br/&gt; status: HttpStatus&lt;/p&gt;" style="verticalAlign=top;align=left;overflow=fill;fontSize=14;fontFamily=Helvetica;html=1;rounded=0;shadow=0;comic=0;labelBackgroundColor=none;strokeWidth=1;" parent="1" vertex="1">
          <mxGeometry x="6941" y="1678" width="175" height="148" as="geometry" />
        </mxCell>
        <mxCell id="node92" value="&lt;p style=&quot;margin:0px;margin-top:4px;text-align:center;&quot;&gt;&lt;b&gt;MemberLoginDto&lt;/b&gt;&lt;/p&gt;&lt;hr size=&quot;1&quot;/&gt;&lt;p style=&quot;margin:0 0 0 4px;line-height:1.6;&quot;&gt;- email: String&lt;br/&gt;- password: String&lt;/p&gt;&lt;hr size=&quot;1&quot;/&gt;&lt;p style=&quot;margin:0 0 0 4px;line-height:1.6;&quot;&gt;+ builder(): MemberLoginDtoBuilder&lt;/p&gt;&lt;hr size=&quot;1&quot;/&gt;&lt;p style=&quot;margin:0 0 0 4px;line-height:1.6;&quot;&gt; email: String&lt;br/&gt; password: String&lt;/p&gt;" style="verticalAlign=top;align=left;overflow=fill;fontSize=14;fontFamily=Helvetica;html=1;rounded=0;shadow=0;comic=0;labelBackgroundColor=none;strokeWidth=1;" parent="1" vertex="1">
          <mxGeometry x="7170" y="4126" width="229" height="162" as="geometry" />
        </mxCell>
        <mxCell id="node55" value="&lt;p style=&quot;margin:0px;margin-top:4px;text-align:center;&quot;&gt;&lt;b&gt;MemberRegisterDto&lt;/b&gt;&lt;/p&gt;&lt;hr size=&quot;1&quot;/&gt;&lt;p style=&quot;margin:0 0 0 4px;line-height:1.6;&quot;&gt;- postcode: String&lt;br/&gt;- role: Role&lt;br/&gt;- password: String&lt;br/&gt;- email: String&lt;br/&gt;- address_detail: String&lt;br/&gt;- name: String&lt;br/&gt;- tel: String&lt;br/&gt;- gender: String&lt;br/&gt;- join_date: Date&lt;br/&gt;- address: String&lt;/p&gt;&lt;hr size=&quot;1&quot;/&gt;&lt;p style=&quot;margin:0 0 0 4px;line-height:1.6;&quot;&gt;+ builder(): MemberRegisterDtoBuilder&lt;/p&gt;&lt;hr size=&quot;1&quot;/&gt;&lt;p style=&quot;margin:0 0 0 4px;line-height:1.6;&quot;&gt; name: String&lt;br/&gt; password: String&lt;br/&gt; role: Role&lt;br/&gt; gender: String&lt;br/&gt; join_date: Date&lt;br/&gt; email: String&lt;br/&gt; tel: String&lt;br/&gt; postcode: String&lt;br/&gt; address: String&lt;br/&gt; address_detail: String&lt;/p&gt;" style="verticalAlign=top;align=left;overflow=fill;fontSize=14;fontFamily=Helvetica;html=1;rounded=0;shadow=0;comic=0;labelBackgroundColor=none;strokeWidth=1;" parent="1" vertex="1">
          <mxGeometry x="5150" y="-167" width="241" height="546" as="geometry" />
        </mxCell>
        <mxCell id="node5" value="&lt;p style=&quot;margin:0px;margin-top:4px;text-align:center;&quot;&gt;&lt;i&gt;&amp;lt;&amp;lt;interface&amp;gt;&amp;gt;&lt;/i&gt;&lt;br/&gt;&lt;b&gt;MemberRepository&lt;/b&gt;&lt;/p&gt;&lt;hr size=&quot;1&quot;/&gt;&lt;p style=&quot;margin:0 0 0 4px;line-height:1.6;&quot;&gt;+ findByEmail(String): Optional&amp;lt;Member&amp;gt;&lt;br/&gt;+ countByEnableFalse(): Long&lt;br/&gt;+ findAll(Pageable): Page&amp;lt;Member&amp;gt;&lt;br/&gt;+ countByGender(String): Long&lt;/p&gt;" style="verticalAlign=top;align=left;overflow=fill;fontSize=14;fontFamily=Helvetica;html=1;rounded=0;shadow=0;comic=0;labelBackgroundColor=none;strokeWidth=1;" parent="1" vertex="1">
          <mxGeometry x="6556" y="782" width="264" height="170" as="geometry" />
        </mxCell>
        <mxCell id="node18" value="&lt;p style=&quot;margin:0px;margin-top:4px;text-align:center;&quot;&gt;&lt;b&gt;MemberResponseDto&lt;/b&gt;&lt;/p&gt;&lt;hr size=&quot;1&quot;/&gt;&lt;p style=&quot;margin:0 0 0 4px;line-height:1.6;&quot;&gt;- postcode: String&lt;br/&gt;- address_detail: String&lt;br/&gt;- disabled_date: Date&lt;br/&gt;- name: String&lt;br/&gt;- join_date: Date&lt;br/&gt;- id: Long&lt;br/&gt;- profile: boolean&lt;br/&gt;- role: Role&lt;br/&gt;- email: String&lt;br/&gt;- profile_url: String&lt;br/&gt;- token: String&lt;br/&gt;- tel: String&lt;br/&gt;- address: String&lt;br/&gt;- enable: boolean&lt;br/&gt;- gender: String&lt;br/&gt;- delete_date: Date&lt;/p&gt;&lt;hr size=&quot;1&quot;/&gt;&lt;p style=&quot;margin:0 0 0 4px;line-height:1.6;&quot;&gt;+ builder(): MemberResponseDtoBuilder&lt;br/&gt;+ fromEntity(Member): MemberResponseDto&lt;/p&gt;&lt;hr size=&quot;1&quot;/&gt;&lt;p style=&quot;margin:0 0 0 4px;line-height:1.6;&quot;&gt; enable: boolean&lt;br/&gt; role: Role&lt;br/&gt; gender: String&lt;br/&gt; join_date: Date&lt;br/&gt; token: String&lt;br/&gt; id: Long&lt;br/&gt; tel: String&lt;br/&gt; delete_date: Date&lt;br/&gt; address: String&lt;br/&gt; name: String&lt;br/&gt; email: String&lt;br/&gt; profile_url: String&lt;br/&gt; postcode: String&lt;br/&gt; profile: boolean&lt;br/&gt; address_detail: String&lt;br/&gt; disabled_date: Date&lt;/p&gt;" style="verticalAlign=top;align=left;overflow=fill;fontSize=14;fontFamily=Helvetica;html=1;rounded=0;shadow=0;comic=0;labelBackgroundColor=none;strokeWidth=1;" parent="1" vertex="1">
          <mxGeometry x="4854" y="-323" width="276" height="858" as="geometry" />
        </mxCell>
        <mxCell id="node17" value="&lt;p style=&quot;margin:0px;margin-top:4px;text-align:center;&quot;&gt;&lt;b&gt;MemberService&lt;/b&gt;&lt;/p&gt;&lt;hr size=&quot;1&quot;/&gt;&lt;p style=&quot;margin:0 0 0 4px;line-height:1.6;&quot;&gt;+ emailDuplicate(MemberRegisterDto): boolean&lt;br/&gt;+ getUser(Long): MemberResponseDto&lt;br/&gt;+ login(MemberLoginDto): MemberTokenDto&lt;br/&gt;+ getAllMembers(Pageable): Page&amp;lt;MemberResponseDto&amp;gt;&lt;br/&gt;+ deleteMember(Long): void&lt;br/&gt;+ userDisabled(Member): void&lt;br/&gt;- authenticate(String, String): void&lt;br/&gt;+ userUpdate(Member, MemberUpdateDto): MemberResponseDto&lt;br/&gt;+ getUserByEmail(String): MemberResponseDto&lt;br/&gt;+ getUserInfoById(Long): MemberResponseDto&lt;br/&gt;+ join(MemberRegisterDto): void&lt;/p&gt;" style="verticalAlign=top;align=left;overflow=fill;fontSize=14;fontFamily=Helvetica;html=1;rounded=0;shadow=0;comic=0;labelBackgroundColor=none;strokeWidth=1;" parent="1" vertex="1">
          <mxGeometry x="7108" y="2586" width="390" height="304" as="geometry" />
        </mxCell>
        <mxCell id="node94" value="&lt;p style=&quot;margin:0px;margin-top:4px;text-align:center;&quot;&gt;&lt;b&gt;MemberUpdateDto&lt;/b&gt;&lt;/p&gt;&lt;hr size=&quot;1&quot;/&gt;&lt;p style=&quot;margin:0 0 0 4px;line-height:1.6;&quot;&gt;- enable: boolean&lt;br/&gt;- tel: String&lt;br/&gt;- address: String&lt;br/&gt;- profile: boolean&lt;br/&gt;- gender: String&lt;br/&gt;- postcode: String&lt;br/&gt;- name: String&lt;br/&gt;- address_detail: String&lt;br/&gt;- role: Role&lt;br/&gt;- email: String&lt;br/&gt;- password: String&lt;/p&gt;&lt;hr size=&quot;1&quot;/&gt;&lt;p style=&quot;margin:0 0 0 4px;line-height:1.6;&quot;&gt;+ builder(): MemberUpdateDtoBuilder&lt;/p&gt;&lt;hr size=&quot;1&quot;/&gt;&lt;p style=&quot;margin:0 0 0 4px;line-height:1.6;&quot;&gt; enable: boolean&lt;br/&gt; name: String&lt;br/&gt; password: String&lt;br/&gt; role: Role&lt;br/&gt; gender: String&lt;br/&gt; email: String&lt;br/&gt; tel: String&lt;br/&gt; postcode: String&lt;br/&gt; profile: boolean&lt;br/&gt; address: String&lt;br/&gt; address_detail: String&lt;/p&gt;" style="verticalAlign=top;align=left;overflow=fill;fontSize=14;fontFamily=Helvetica;html=1;rounded=0;shadow=0;comic=0;labelBackgroundColor=none;strokeWidth=1;" parent="1" vertex="1">
          <mxGeometry x="5411" y="-191" width="237" height="594" as="geometry" />
        </mxCell>
        <mxCell id="node43" value="&lt;p style=&quot;margin:0px;margin-top:4px;text-align:center;&quot;&gt;&lt;b&gt;OauthService&lt;/b&gt;&lt;/p&gt;&lt;hr size=&quot;1&quot;/&gt;&lt;p style=&quot;margin:0 0 0 4px;line-height:1.6;&quot;&gt;+ googleLogin(String): Map&amp;lt;String, String&amp;gt;&lt;/p&gt;" style="verticalAlign=top;align=left;overflow=fill;fontSize=14;fontFamily=Helvetica;html=1;rounded=0;shadow=0;comic=0;labelBackgroundColor=none;strokeWidth=1;" parent="1" vertex="1">
          <mxGeometry x="6779" y="3492" width="272" height="69" as="geometry" />
        </mxCell>
        <mxCell id="node66" value="&lt;p style=&quot;margin:0px;margin-top:4px;text-align:center;&quot;&gt;&lt;b&gt;ResCampDetailDto&lt;/b&gt;&lt;/p&gt;&lt;hr size=&quot;1&quot;/&gt;&lt;p style=&quot;margin:0 0 0 4px;line-height:1.6;&quot;&gt;- id: Long&lt;br/&gt;- campInfo: String&lt;br/&gt;- images: List&amp;lt;ResCampImageUploadDto&amp;gt;&lt;br/&gt;- fireWood: Boolean&lt;br/&gt;- playGround: Boolean&lt;br/&gt;- pet: Boolean&lt;br/&gt;- campName: String&lt;br/&gt;- campAddress1: String&lt;br/&gt;- campAddressDo: String&lt;br/&gt;- totalCapacity: Integer&lt;br/&gt;- createdDate: String&lt;br/&gt;- electric: Boolean&lt;br/&gt;- campTel: String&lt;br/&gt;- campAddress2: String&lt;br/&gt;- campMapX: String&lt;br/&gt;- toilet: Integer&lt;br/&gt;- campAddressGungu: String&lt;br/&gt;- wifi: Boolean&lt;br/&gt;- campLike: Integer&lt;br/&gt;- swimming: Boolean&lt;br/&gt;- thumb: List&amp;lt;ResCampThumbUploadDto&amp;gt;&lt;br/&gt;- campHit: Integer&lt;br/&gt;- campMapY: String&lt;br/&gt;- hotWater: Boolean&lt;/p&gt;&lt;hr size=&quot;1&quot;/&gt;&lt;p style=&quot;margin:0 0 0 4px;line-height:1.6;&quot;&gt;+ builder(): ResCampDetailDtoBuilder&lt;br/&gt;+ fromEntity(Campsite): ResCampDetailDto&lt;/p&gt;&lt;hr size=&quot;1&quot;/&gt;&lt;p style=&quot;margin:0 0 0 4px;line-height:1.6;&quot;&gt; campMapX: String&lt;br/&gt; wifi: Boolean&lt;br/&gt; createdDate: String&lt;br/&gt; pet: Boolean&lt;br/&gt; campInfo: String&lt;br/&gt; electric: Boolean&lt;br/&gt; id: Long&lt;br/&gt; campAddressDo: String&lt;br/&gt; campMapY: String&lt;br/&gt; campName: String&lt;br/&gt; campHit: Integer&lt;br/&gt; hotWater: Boolean&lt;br/&gt; campTel: String&lt;br/&gt; thumb: List&amp;lt;ResCampThumbUploadDto&amp;gt;&lt;br/&gt; campAddressGungu: String&lt;br/&gt; fireWood: Boolean&lt;br/&gt; toilet: Integer&lt;br/&gt; swimming: Boolean&lt;br/&gt; campAddress1: String&lt;br/&gt; campLike: Integer&lt;br/&gt; campAddress2: String&lt;br/&gt; playGround: Boolean&lt;br/&gt; images: List&amp;lt;ResCampImageUploadDto&amp;gt;&lt;br/&gt; totalCapacity: Integer&lt;/p&gt;" style="verticalAlign=top;align=left;overflow=fill;fontSize=14;fontFamily=Helvetica;html=1;rounded=0;shadow=0;comic=0;labelBackgroundColor=none;strokeWidth=1;" parent="1" vertex="1">
          <mxGeometry x="-229" y="5071" width="270" height="1199" as="geometry" />
        </mxCell>
        <mxCell id="node80" value="&lt;p style=&quot;margin:0px;margin-top:4px;text-align:center;&quot;&gt;&lt;b&gt;ResCampWriteDto&lt;/b&gt;&lt;/p&gt;&lt;hr size=&quot;1&quot;/&gt;&lt;p style=&quot;margin:0 0 0 4px;line-height:1.6;&quot;&gt;- campName: String&lt;br/&gt;- campAddress2: String&lt;br/&gt;- pet: Boolean&lt;br/&gt;- campAddress1: String&lt;br/&gt;- hotWater: Boolean&lt;br/&gt;- campAddressGungu: String&lt;br/&gt;- fireWood: Boolean&lt;br/&gt;- electric: Boolean&lt;br/&gt;- campMapX: String&lt;br/&gt;- id: Long&lt;br/&gt;- totalCapacity: Integer&lt;br/&gt;- createdDate: String&lt;br/&gt;- toilet: Integer&lt;br/&gt;- playGround: Boolean&lt;br/&gt;- campInfo: String&lt;br/&gt;- campAddressDo: String&lt;br/&gt;- campTel: String&lt;br/&gt;- wifi: Boolean&lt;br/&gt;- swimming: Boolean&lt;br/&gt;- campMapY: String&lt;/p&gt;&lt;hr size=&quot;1&quot;/&gt;&lt;p style=&quot;margin:0 0 0 4px;line-height:1.6;&quot;&gt;+ builder(): ResCampWriteDtoBuilder&lt;br/&gt;+ fromEntity(Campsite): ResCampWriteDto&lt;/p&gt;&lt;hr size=&quot;1&quot;/&gt;&lt;p style=&quot;margin:0 0 0 4px;line-height:1.6;&quot;&gt; campMapX: String&lt;br/&gt; wifi: Boolean&lt;br/&gt; createdDate: String&lt;br/&gt; pet: Boolean&lt;br/&gt; campInfo: String&lt;br/&gt; electric: Boolean&lt;br/&gt; id: Long&lt;br/&gt; campAddressDo: String&lt;br/&gt; campMapY: String&lt;br/&gt; campName: String&lt;br/&gt; hotWater: Boolean&lt;br/&gt; campTel: String&lt;br/&gt; campAddressGungu: String&lt;br/&gt; fireWood: Boolean&lt;br/&gt; toilet: Integer&lt;br/&gt; swimming: Boolean&lt;br/&gt; campAddress1: String&lt;br/&gt; campAddress2: String&lt;br/&gt; playGround: Boolean&lt;br/&gt; totalCapacity: Integer&lt;/p&gt;" style="verticalAlign=top;align=left;overflow=fill;fontSize=14;fontFamily=Helvetica;html=1;rounded=0;shadow=0;comic=0;labelBackgroundColor=none;strokeWidth=1;" parent="1" vertex="1">
          <mxGeometry x="1395" y="4595" width="264" height="1050" as="geometry" />
        </mxCell>
        <mxCell id="node26" value="&lt;p style=&quot;margin:0px;margin-top:4px;text-align:center;&quot;&gt;&lt;b&gt;ResReservationDto&lt;/b&gt;&lt;/p&gt;&lt;hr size=&quot;1&quot;/&gt;&lt;p style=&quot;margin:0 0 0 4px;line-height:1.6;&quot;&gt;- campName: String&lt;br/&gt;- memberEmail: String&lt;br/&gt;- usageDate: Date&lt;br/&gt;- memberId: Long&lt;br/&gt;- id: Long&lt;br/&gt;- campId: Long&lt;br/&gt;- reservationDate: Date&lt;/p&gt;&lt;hr size=&quot;1&quot;/&gt;&lt;p style=&quot;margin:0 0 0 4px;line-height:1.6;&quot;&gt;+ builder(): ResReservationDtoBuilder&lt;br/&gt;+ fromEntity(Reservation): ResReservationDto&lt;/p&gt;&lt;hr size=&quot;1&quot;/&gt;&lt;p style=&quot;margin:0 0 0 4px;line-height:1.6;&quot;&gt; reservationDate: Date&lt;br/&gt; memberId: Long&lt;br/&gt; id: Long&lt;br/&gt; memberEmail: String&lt;br/&gt; usageDate: Date&lt;br/&gt; campId: Long&lt;br/&gt; campName: String&lt;/p&gt;" style="verticalAlign=top;align=left;overflow=fill;fontSize=14;fontFamily=Helvetica;html=1;rounded=0;shadow=0;comic=0;labelBackgroundColor=none;strokeWidth=1;" parent="1" vertex="1">
          <mxGeometry x="2601" y="4595" width="276" height="426" as="geometry" />
        </mxCell>
        <mxCell id="node84" value="&lt;p style=&quot;margin:0px;margin-top:4px;text-align:center;&quot;&gt;&lt;b&gt;Reservation&lt;/b&gt;&lt;/p&gt;&lt;hr size=&quot;1&quot;/&gt;&lt;p style=&quot;margin:0 0 0 4px;line-height:1.6;&quot;&gt;- campName: String&lt;br/&gt;- member: Member&lt;br/&gt;- reservationDate: Date&lt;br/&gt;- id: Long&lt;br/&gt;- camp: Campsite&lt;br/&gt;- usageDate: Date&lt;br/&gt;- memberEmail: String&lt;/p&gt;&lt;hr size=&quot;1&quot;/&gt;&lt;p style=&quot;margin:0 0 0 4px;line-height:1.6;&quot;&gt;+ builder(): ReservationBuilder&lt;/p&gt;&lt;hr size=&quot;1&quot;/&gt;&lt;p style=&quot;margin:0 0 0 4px;line-height:1.6;&quot;&gt; reservationDate: Date&lt;br/&gt; id: Long&lt;br/&gt; member: Member&lt;br/&gt; memberEmail: String&lt;br/&gt; usageDate: Date&lt;br/&gt; campName: String&lt;br/&gt; camp: Campsite&lt;/p&gt;" style="verticalAlign=top;align=left;overflow=fill;fontSize=14;fontFamily=Helvetica;html=1;rounded=0;shadow=0;comic=0;labelBackgroundColor=none;strokeWidth=1;" parent="1" vertex="1">
          <mxGeometry x="1133" y="2537" width="195" height="402" as="geometry" />
        </mxCell>
        <mxCell id="node42" value="&lt;p style=&quot;margin:0px;margin-top:4px;text-align:center;&quot;&gt;&lt;b&gt;ReservationController&lt;/b&gt;&lt;/p&gt;&lt;hr size=&quot;1&quot;/&gt;&lt;p style=&quot;margin:0 0 0 4px;line-height:1.6;&quot;&gt;+ reservation(ReservationDto): ResponseEntity&amp;lt;?&amp;gt;&lt;br/&gt;+ delete(Long): ResponseEntity&amp;lt;Long&amp;gt;&lt;br/&gt;+ getReservation(Long, Pageable): ResponseEntity&amp;lt;Page&amp;lt;ResReservationDto&amp;gt;&amp;gt;&lt;/p&gt;" style="verticalAlign=top;align=left;overflow=fill;fontSize=14;fontFamily=Helvetica;html=1;rounded=0;shadow=0;comic=0;labelBackgroundColor=none;strokeWidth=1;" parent="1" vertex="1">
          <mxGeometry x="1545" y="4258" width="461" height="121" as="geometry" />
        </mxCell>
        <mxCell id="node85" value="&lt;p style=&quot;margin:0px;margin-top:4px;text-align:center;&quot;&gt;&lt;b&gt;ReservationDto&lt;/b&gt;&lt;/p&gt;&lt;hr size=&quot;1&quot;/&gt;&lt;p style=&quot;margin:0 0 0 4px;line-height:1.6;&quot;&gt;- usageDate: Date&lt;br/&gt;- memberEmail: String&lt;br/&gt;- campName: String&lt;br/&gt;- reservationDate: Date&lt;br/&gt;- memberId: Long&lt;br/&gt;- campId: Long&lt;/p&gt;&lt;hr size=&quot;1&quot;/&gt;&lt;p style=&quot;margin:0 0 0 4px;line-height:1.6;&quot;&gt;+ builder(): ReservationDtoBuilder&lt;/p&gt;&lt;hr size=&quot;1&quot;/&gt;&lt;p style=&quot;margin:0 0 0 4px;line-height:1.6;&quot;&gt; reservationDate: Date&lt;br/&gt; memberId: Long&lt;br/&gt; memberEmail: String&lt;br/&gt; usageDate: Date&lt;br/&gt; campId: Long&lt;br/&gt; campName: String&lt;/p&gt;" style="verticalAlign=top;align=left;overflow=fill;fontSize=14;fontFamily=Helvetica;html=1;rounded=0;shadow=0;comic=0;labelBackgroundColor=none;strokeWidth=1;" parent="1" vertex="1">
          <mxGeometry x="3731" y="4595" width="215" height="354" as="geometry" />
        </mxCell>
        <mxCell id="node21" value="&lt;p style=&quot;margin:0px;margin-top:4px;text-align:center;&quot;&gt;&lt;i&gt;&amp;lt;&amp;lt;interface&amp;gt;&amp;gt;&lt;/i&gt;&lt;br/&gt;&lt;b&gt;ReservationRepository&lt;/b&gt;&lt;/p&gt;&lt;hr size=&quot;1&quot;/&gt;&lt;p style=&quot;margin:0 0 0 4px;line-height:1.6;&quot;&gt;+ findAllByMemberId(Long, Pageable): Page&amp;lt;Reservation&amp;gt;&lt;/p&gt;" style="verticalAlign=top;align=left;overflow=fill;fontSize=14;fontFamily=Helvetica;html=1;rounded=0;shadow=0;comic=0;labelBackgroundColor=none;strokeWidth=1;" parent="1" vertex="1">
          <mxGeometry x="3897" y="2706" width="350" height="80" as="geometry" />
        </mxCell>
        <mxCell id="node75" value="&lt;p style=&quot;margin:0px;margin-top:4px;text-align:center;&quot;&gt;&lt;b&gt;ReservationService&lt;/b&gt;&lt;/p&gt;&lt;hr size=&quot;1&quot;/&gt;&lt;p style=&quot;margin:0 0 0 4px;line-height:1.6;&quot;&gt;+ getAllResByMember(Long, Pageable): Page&amp;lt;ResReservationDto&amp;gt;&lt;br/&gt;+ newRes(ReservationDto): ResReservationDto&lt;br/&gt;+ delete(Long): void&lt;br/&gt;+ getAllReservations(Pageable): Page&amp;lt;ResReservationDto&amp;gt;&lt;/p&gt;" style="verticalAlign=top;align=left;overflow=fill;fontSize=14;fontFamily=Helvetica;html=1;rounded=0;shadow=0;comic=0;labelBackgroundColor=none;strokeWidth=1;" parent="1" vertex="1">
          <mxGeometry x="2656" y="3456" width="392" height="147" as="geometry" />
        </mxCell>
        <mxCell id="node3" value="&lt;p style=&quot;margin:0px;margin-top:4px;text-align:center;&quot;&gt;&lt;i&gt;&amp;lt;&amp;lt;interface&amp;gt;&amp;gt;&lt;/i&gt;&lt;br/&gt;&lt;b&gt;ReviewRepository&lt;/b&gt;&lt;/p&gt;&lt;hr size=&quot;1&quot;/&gt;&lt;p style=&quot;margin:0 0 0 4px;line-height:1.6;&quot;&gt;+ findAllWithPopularity(Pageable): Page&amp;lt;Review&amp;gt;&lt;br/&gt;+ findBestReviews(Pageable): Page&amp;lt;Review&amp;gt;&lt;br/&gt;+ deleteByReviewId(Long): void&lt;br/&gt;+ findByCampId(Long, Pageable): Page&amp;lt;Review&amp;gt;&lt;/p&gt;" style="verticalAlign=top;align=left;overflow=fill;fontSize=14;fontFamily=Helvetica;html=1;rounded=0;shadow=0;comic=0;labelBackgroundColor=none;strokeWidth=1;" parent="1" vertex="1">
          <mxGeometry x="4769" y="2670" width="303" height="170" as="geometry" />
        </mxCell>
        <mxCell id="node4" value="&lt;p style=&quot;margin:0px;margin-top:4px;text-align:center;&quot;&gt;&lt;i&gt;&amp;lt;&amp;lt;enumeration&amp;gt;&amp;gt;&lt;/i&gt;&lt;br/&gt;&lt;b&gt;Role&lt;/b&gt;&lt;/p&gt;&lt;hr size=&quot;1&quot;/&gt;&lt;p style=&quot;margin:0 0 0 4px;line-height:1.6;&quot;&gt;+ values(): Role[]&lt;br/&gt;+ valueOf(String): Role&lt;/p&gt;" style="verticalAlign=top;align=left;overflow=fill;fontSize=14;fontFamily=Helvetica;html=1;rounded=0;shadow=0;comic=0;labelBackgroundColor=none;strokeWidth=1;" parent="1" vertex="1">
          <mxGeometry x="4777" y="-600" width="156" height="102" as="geometry" />
        </mxCell>
        <mxCell id="node71" value="&lt;p style=&quot;margin:0px;margin-top:4px;text-align:center;&quot;&gt;&lt;b&gt;SecurityConfig&lt;/b&gt;&lt;/p&gt;&lt;hr size=&quot;1&quot;/&gt;&lt;p style=&quot;margin:0 0 0 4px;line-height:1.6;&quot;&gt;+ passwordEncoder(): PasswordEncoder&lt;br/&gt;+ authenticationManager(AuthenticationConfiguration): AuthenticationManager&lt;br/&gt;+ filterChain(HttpSecurity): SecurityFilterChain&lt;/p&gt;" style="verticalAlign=top;align=left;overflow=fill;fontSize=14;fontFamily=Helvetica;html=1;rounded=0;shadow=0;comic=0;labelBackgroundColor=none;strokeWidth=1;" parent="1" vertex="1">
          <mxGeometry x="8282" y="3468" width="463" height="121" as="geometry" />
        </mxCell>
        <mxCell id="node81" value="&lt;p style=&quot;margin:0px;margin-top:4px;text-align:center;&quot;&gt;&lt;b&gt;SecurityKeyService&lt;/b&gt;&lt;/p&gt;&lt;hr size=&quot;1&quot;/&gt;&lt;p style=&quot;margin:0 0 0 4px;line-height:1.6;&quot;&gt;+ validateSecurityKey(String): boolean&lt;/p&gt;" style="verticalAlign=top;align=left;overflow=fill;fontSize=14;fontFamily=Helvetica;html=1;rounded=0;shadow=0;comic=0;labelBackgroundColor=none;strokeWidth=1;" parent="1" vertex="1">
          <mxGeometry x="6057" y="3492" width="238" height="69" as="geometry" />
        </mxCell>
        <mxCell id="edge75" value="" style="html=1;rounded=1;edgeStyle=orthogonalEdgeStyle;dashed=0;startArrow=diamondThinstartSize=12;endArrow=openThin;endSize=12;strokeColor=#595959;exitX=0.500;exitY=0.000;exitDx=0;exitDy=0;entryX=0.500;entryY=1.000;entryDx=0;entryDy=0;" parent="1" source="node53" target="node30" edge="1">
          <mxGeometry width="50" height="50" relative="1" as="geometry">
            <Array as="points">
              <mxPoint x="4827" y="3996" />
              <mxPoint x="4759" y="3996" />
              <mxPoint x="4759" y="2515" />
              <mxPoint x="4271" y="2515" />
              <mxPoint x="4271" y="2465" />
              <mxPoint x="4714" y="2465" />
            </Array>
          </mxGeometry>
        </mxCell>
        <mxCell id="edge30" value="" style="html=1;rounded=1;edgeStyle=orthogonalEdgeStyle;dashed=0;startArrow=diamondThinstartSize=12;endArrow=openThin;endSize=12;strokeColor=#595959;exitX=0.500;exitY=0.000;exitDx=0;exitDy=0;entryX=0.500;entryY=1.000;entryDx=0;entryDy=0;" parent="1" source="node53" target="node0" edge="1">
          <mxGeometry width="50" height="50" relative="1" as="geometry">
            <Array as="points">
              <mxPoint x="4827" y="3996" />
              <mxPoint x="5773" y="3996" />
              <mxPoint x="5773" y="2515" />
              <mxPoint x="5860" y="2515" />
            </Array>
          </mxGeometry>
        </mxCell>
        <mxCell id="edge95" value="" style="html=1;rounded=1;edgeStyle=orthogonalEdgeStyle;dashed=0;startArrow=diamondThinstartSize=12;endArrow=openThin;endSize=12;strokeColor=#595959;exitX=0.500;exitY=0.000;exitDx=0;exitDy=0;entryX=0.500;entryY=1.000;entryDx=0;entryDy=0;" parent="1" source="node53" target="node5" edge="1">
          <mxGeometry width="50" height="50" relative="1" as="geometry">
            <Array as="points">
              <mxPoint x="4827" y="3996" />
              <mxPoint x="6047" y="3996" />
              <mxPoint x="6047" y="1057" />
              <mxPoint x="6688" y="1057" />
            </Array>
          </mxGeometry>
        </mxCell>
        <mxCell id="edge98" value="" style="html=1;rounded=1;edgeStyle=orthogonalEdgeStyle;dashed=0;startArrow=diamondThinstartSize=12;endArrow=openThin;endSize=12;strokeColor=#595959;exitX=0.500;exitY=0.000;exitDx=0;exitDy=0;entryX=0.500;entryY=1.000;entryDx=0;entryDy=0;" parent="1" source="node53" target="node17" edge="1">
          <mxGeometry width="50" height="50" relative="1" as="geometry">
            <Array as="points">
              <mxPoint x="4827" y="3996" />
              <mxPoint x="6769" y="3996" />
              <mxPoint x="6769" y="3041" />
              <mxPoint x="7303" y="3041" />
            </Array>
          </mxGeometry>
        </mxCell>
        <mxCell id="edge60" value="" style="html=1;rounded=1;edgeStyle=orthogonalEdgeStyle;dashed=0;startArrow=diamondThinstartSize=12;endArrow=openThin;endSize=12;strokeColor=#595959;exitX=0.500;exitY=0.000;exitDx=0;exitDy=0;entryX=0.500;entryY=1.001;entryDx=0;entryDy=0;" parent="1" source="node53" target="node21" edge="1">
          <mxGeometry width="50" height="50" relative="1" as="geometry">
            <Array as="points">
              <mxPoint x="4827" y="3996" />
              <mxPoint x="4072" y="3996" />
            </Array>
          </mxGeometry>
        </mxCell>
        <mxCell id="edge11" value="" style="html=1;rounded=1;edgeStyle=orthogonalEdgeStyle;dashed=0;startArrow=diamondThinstartSize=12;endArrow=openThin;endSize=12;strokeColor=#595959;exitX=0.500;exitY=0.000;exitDx=0;exitDy=0;entryX=0.500;entryY=1.000;entryDx=0;entryDy=0;" parent="1" source="node53" target="node75" edge="1">
          <mxGeometry width="50" height="50" relative="1" as="geometry">
            <Array as="points">
              <mxPoint x="4827" y="4026" />
              <mxPoint x="2852" y="4026" />
            </Array>
          </mxGeometry>
        </mxCell>
        <mxCell id="edge94" value="" style="html=1;rounded=1;edgeStyle=orthogonalEdgeStyle;dashed=0;startArrow=diamondThinstartSize=12;endArrow=openThin;endSize=12;strokeColor=#595959;exitX=0.500;exitY=0.000;exitDx=0;exitDy=0;entryX=0.500;entryY=1.000;entryDx=0;entryDy=0;" parent="1" source="node53" target="node3" edge="1">
          <mxGeometry width="50" height="50" relative="1" as="geometry">
            <Array as="points">
              <mxPoint x="4827" y="3996" />
              <mxPoint x="4921" y="3996" />
            </Array>
          </mxGeometry>
        </mxCell>
        <mxCell id="edge24" value="" style="html=1;rounded=1;edgeStyle=orthogonalEdgeStyle;dashed=0;startArrow=diamondThinstartSize=12;endArrow=openThin;endSize=12;strokeColor=#595959;exitX=0.500;exitY=0.000;exitDx=0;exitDy=0;entryX=0.500;entryY=1.000;entryDx=0;entryDy=0;" parent="1" source="node53" target="node81" edge="1">
          <mxGeometry width="50" height="50" relative="1" as="geometry">
            <Array as="points">
              <mxPoint x="4827" y="4056" />
              <mxPoint x="6176" y="4056" />
            </Array>
          </mxGeometry>
        </mxCell>
        <mxCell id="edge113" value="" style="html=1;rounded=1;edgeStyle=orthogonalEdgeStyle;dashed=0;startArrow=diamondThinstartSize=12;endArrow=openThin;endSize=12;strokeColor=#595959;exitX=0.500;exitY=0.000;exitDx=0;exitDy=0;entryX=0.500;entryY=1.000;entryDx=0;entryDy=0;" parent="1" source="node37" target="node4" edge="1">
          <mxGeometry width="50" height="50" relative="1" as="geometry">
            <Array as="points">
              <mxPoint x="4718" y="-450" />
              <mxPoint x="4855" y="-450" />
            </Array>
          </mxGeometry>
        </mxCell>
        <mxCell id="edge96" value="" style="html=1;rounded=1;edgeStyle=orthogonalEdgeStyle;dashed=0;startArrow=diamondThinstartSize=12;endArrow=openThin;endSize=12;strokeColor=#595959;exitX=0.500;exitY=0.000;exitDx=0;exitDy=0;entryX=0.500;entryY=1.000;entryDx=0;entryDy=0;" parent="1" source="node79" target="node5" edge="1">
          <mxGeometry width="50" height="50" relative="1" as="geometry">
            <Array as="points">
              <mxPoint x="7706" y="2425" />
              <mxPoint x="7301" y="2425" />
              <mxPoint x="7301" y="1057" />
              <mxPoint x="6688" y="1057" />
            </Array>
          </mxGeometry>
        </mxCell>
        <mxCell id="edge45" value="" style="html=1;rounded=1;edgeStyle=orthogonalEdgeStyle;dashed=0;startArrow=diamondThinstartSize=12;endArrow=openThin;endSize=12;strokeColor=#595959;exitX=0.500;exitY=0.000;exitDx=0;exitDy=0;entryX=0.500;entryY=1.000;entryDx=0;entryDy=0;" parent="1" source="node46" target="node83" edge="1">
          <mxGeometry width="50" height="50" relative="1" as="geometry">
            <Array as="points">
              <mxPoint x="2373" y="4026" />
              <mxPoint x="1630" y="4026" />
            </Array>
          </mxGeometry>
        </mxCell>
        <mxCell id="edge108" value="" style="html=1;rounded=1;edgeStyle=orthogonalEdgeStyle;dashed=0;startArrow=diamondThinstartSize=12;endArrow=openThin;endSize=12;strokeColor=#595959;exitX=0.750;exitY=0.000;exitDx=0;exitDy=0;entryX=0.500;entryY=1.000;entryDx=0;entryDy=0;" parent="1" source="node83" target="node30" edge="1">
          <mxGeometry width="50" height="50" relative="1" as="geometry">
            <Array as="points">
              <mxPoint x="1742" y="3061" />
              <mxPoint x="2666" y="3061" />
              <mxPoint x="2666" y="2961" />
              <mxPoint x="2792" y="2961" />
              <mxPoint x="2792" y="2515" />
              <mxPoint x="4271" y="2515" />
              <mxPoint x="4271" y="2465" />
              <mxPoint x="4714" y="2465" />
            </Array>
          </mxGeometry>
        </mxCell>
        <mxCell id="edge39" value="" style="html=1;rounded=1;edgeStyle=orthogonalEdgeStyle;dashed=0;startArrow=diamondThinstartSize=12;endArrow=openThin;endSize=12;strokeColor=#595959;exitX=0.750;exitY=0.000;exitDx=0;exitDy=0;entryX=0.500;entryY=1.000;entryDx=0;entryDy=0;" parent="1" source="node83" target="node21" edge="1">
          <mxGeometry width="50" height="50" relative="1" as="geometry">
            <Array as="points">
              <mxPoint x="1742" y="3061" />
              <mxPoint x="2666" y="3061" />
              <mxPoint x="2666" y="3001" />
              <mxPoint x="4072" y="3001" />
            </Array>
          </mxGeometry>
        </mxCell>
        <mxCell id="label238" value="1" style="edgeLabel;resizable=0;html=1;align=left;verticalAlign=top;strokeColor=default;" parent="edge39" vertex="1" connectable="0">
          <mxGeometry x="3715" y="2981" as="geometry" />
        </mxCell>
        <mxCell id="edge46" value="" style="html=1;rounded=1;edgeStyle=orthogonalEdgeStyle;dashed=0;startArrow=diamondThinstartSize=12;endArrow=openThin;endSize=12;strokeColor=#595959;exitX=0.750;exitY=0.000;exitDx=0;exitDy=0;entryX=0.500;entryY=1.000;entryDx=0;entryDy=0;" parent="1" source="node83" target="node3" edge="1">
          <mxGeometry width="50" height="50" relative="1" as="geometry">
            <Array as="points">
              <mxPoint x="1742" y="3061" />
              <mxPoint x="2666" y="3061" />
              <mxPoint x="2666" y="3011" />
              <mxPoint x="4921" y="3011" />
            </Array>
          </mxGeometry>
        </mxCell>
        <mxCell id="edge7" value="" style="html=1;rounded=1;edgeStyle=orthogonalEdgeStyle;dashed=0;startArrow=diamondThinstartSize=12;endArrow=openThin;endSize=12;strokeColor=#595959;exitX=0.500;exitY=0.000;exitDx=0;exitDy=0;entryX=0.500;entryY=1.000;entryDx=0;entryDy=0;" parent="1" source="node59" target="node0" edge="1">
          <mxGeometry width="50" height="50" relative="1" as="geometry">
            <Array as="points">
              <mxPoint x="6537" y="3051" />
              <mxPoint x="5860" y="3051" />
            </Array>
          </mxGeometry>
        </mxCell>
        <mxCell id="edge111" value="" style="html=1;rounded=1;edgeStyle=orthogonalEdgeStyle;dashed=0;startArrow=diamondThinstartSize=12;endArrow=openThin;endSize=12;strokeColor=#595959;exitX=0.500;exitY=0.000;exitDx=0;exitDy=0;entryX=0.500;entryY=1.000;entryDx=0;entryDy=0;" parent="1" source="node59" target="node11" edge="1">
          <mxGeometry width="50" height="50" relative="1" as="geometry">
            <Array as="points" />
          </mxGeometry>
        </mxCell>
        <mxCell id="edge16" value="" style="html=1;rounded=1;edgeStyle=orthogonalEdgeStyle;dashed=0;startArrow=diamondThinstartSize=12;endArrow=openThin;endSize=12;strokeColor=#595959;exitX=0.500;exitY=0.000;exitDx=0;exitDy=0;entryX=0.500;entryY=1.000;entryDx=0;entryDy=0;" parent="1" source="node59" target="node17" edge="1">
          <mxGeometry width="50" height="50" relative="1" as="geometry">
            <Array as="points">
              <mxPoint x="6537" y="3061" />
              <mxPoint x="6769" y="3061" />
              <mxPoint x="6769" y="3041" />
              <mxPoint x="7303" y="3041" />
            </Array>
          </mxGeometry>
        </mxCell>
        <mxCell id="edge72" value="" style="html=1;rounded=1;edgeStyle=orthogonalEdgeStyle;dashed=0;startArrow=diamondThinstartSize=12;endArrow=openThin;endSize=12;strokeColor=#595959;exitX=0.500;exitY=0.000;exitDx=0;exitDy=0;entryX=0.500;entryY=1.000;entryDx=0;entryDy=0;" parent="1" source="node11" target="node0" edge="1">
          <mxGeometry width="50" height="50" relative="1" as="geometry">
            <Array as="points">
              <mxPoint x="6537" y="2505" />
              <mxPoint x="5860" y="2505" />
            </Array>
          </mxGeometry>
        </mxCell>
        <mxCell id="edge90" value="" style="html=1;rounded=1;edgeStyle=orthogonalEdgeStyle;dashed=0;startArrow=diamondThinstartSize=12;endArrow=openThin;endSize=12;strokeColor=#595959;exitX=0.500;exitY=0.000;exitDx=0;exitDy=0;entryX=0.500;entryY=1.000;entryDx=0;entryDy=0;" parent="1" source="node11" target="node5" edge="1">
          <mxGeometry width="50" height="50" relative="1" as="geometry">
            <Array as="points">
              <mxPoint x="6537" y="1057" />
              <mxPoint x="6688" y="1057" />
            </Array>
          </mxGeometry>
        </mxCell>
        <mxCell id="edge85" value="" style="html=1;rounded=1;edgeStyle=orthogonalEdgeStyle;dashed=0;startArrow=diamondThinstartSize=12;endArrow=openThin;endSize=12;strokeColor=#595959;exitX=0.500;exitY=0.000;exitDx=0;exitDy=0;entryX=0.500;entryY=1.000;entryDx=0;entryDy=0;" parent="1" source="node82" target="node7" edge="1">
          <mxGeometry width="50" height="50" relative="1" as="geometry">
            <Array as="points">
              <mxPoint x="8721" y="2495" />
              <mxPoint x="7983" y="2495" />
            </Array>
          </mxGeometry>
        </mxCell>
        <mxCell id="edge110" value="" style="html=1;rounded=1;edgeStyle=orthogonalEdgeStyle;dashed=0;startArrow=diamondThinstartSize=12;endArrow=openThin;endSize=12;strokeColor=#595959;exitX=0.750;exitY=0.000;exitDx=0;exitDy=0;entryX=0.500;entryY=1.000;entryDx=0;entryDy=0;" parent="1" source="node12" target="node4" edge="1">
          <mxGeometry width="50" height="50" relative="1" as="geometry">
            <Array as="points">
              <mxPoint x="4183" y="-450" />
              <mxPoint x="4855" y="-450" />
            </Array>
          </mxGeometry>
        </mxCell>
        <mxCell id="edge100" value="" style="html=1;rounded=1;edgeStyle=orthogonalEdgeStyle;dashed=0;startArrow=diamondThinstartSize=12;endArrow=openThin;endSize=12;strokeColor=#595959;exitX=0.500;exitY=0.000;exitDx=0;exitDy=0;entryX=0.500;entryY=1.000;entryDx=0;entryDy=0;" parent="1" source="node50" target="node17" edge="1">
          <mxGeometry width="50" height="50" relative="1" as="geometry">
            <Array as="points">
              <mxPoint x="6774" y="3986" />
              <mxPoint x="6769" y="3986" />
              <mxPoint x="6769" y="3041" />
              <mxPoint x="7303" y="3041" />
            </Array>
          </mxGeometry>
        </mxCell>
        <mxCell id="edge33" value="" style="html=1;rounded=1;edgeStyle=orthogonalEdgeStyle;dashed=0;startArrow=diamondThinstartSize=12;endArrow=openThin;endSize=12;strokeColor=#595959;exitX=0.500;exitY=0.000;exitDx=0;exitDy=0;entryX=0.500;entryY=1.000;entryDx=0;entryDy=0;" parent="1" source="node50" target="node43" edge="1">
          <mxGeometry width="50" height="50" relative="1" as="geometry">
            <Array as="points">
              <mxPoint x="6774" y="3986" />
              <mxPoint x="6915" y="3986" />
            </Array>
          </mxGeometry>
        </mxCell>
        <mxCell id="edge23" value="" style="html=1;rounded=1;edgeStyle=orthogonalEdgeStyle;dashed=0;startArrow=diamondThinstartSize=12;endArrow=openThin;endSize=12;strokeColor=#595959;exitX=0.500;exitY=0.000;exitDx=0;exitDy=0;entryX=0.500;entryY=1.000;entryDx=0;entryDy=0;" parent="1" source="node50" target="node81" edge="1">
          <mxGeometry width="50" height="50" relative="1" as="geometry">
            <Array as="points">
              <mxPoint x="6774" y="4046" />
              <mxPoint x="6176" y="4046" />
            </Array>
          </mxGeometry>
        </mxCell>
        <mxCell id="edge86" value="" style="html=1;rounded=1;edgeStyle=orthogonalEdgeStyle;dashed=0;startArrow=diamondThinstartSize=12;endArrow=openThin;endSize=12;strokeColor=#595959;exitX=0.500;exitY=0.000;exitDx=0;exitDy=0;entryX=0.500;entryY=1.000;entryDx=0;entryDy=0;" parent="1" source="node55" target="node4" edge="1">
          <mxGeometry width="50" height="50" relative="1" as="geometry">
            <Array as="points">
              <mxPoint x="5271" y="-450" />
              <mxPoint x="4855" y="-450" />
            </Array>
          </mxGeometry>
        </mxCell>
        <mxCell id="edge74" value="" style="html=1;rounded=1;edgeStyle=orthogonalEdgeStyle;dashed=0;startArrow=diamondThinstartSize=12;endArrow=openThin;endSize=12;strokeColor=#595959;exitX=0.500;exitY=0.000;exitDx=0;exitDy=0;entryX=0.500;entryY=1.000;entryDx=0;entryDy=0;" parent="1" source="node18" target="node4" edge="1">
          <mxGeometry width="50" height="50" relative="1" as="geometry">
            <Array as="points">
              <mxPoint x="4992" y="-450" />
              <mxPoint x="4855" y="-450" />
            </Array>
          </mxGeometry>
        </mxCell>
        <mxCell id="edge28" value="" style="html=1;rounded=1;edgeStyle=orthogonalEdgeStyle;dashed=0;startArrow=diamondThinstartSize=12;endArrow=openThin;endSize=12;strokeColor=#595959;exitX=0.750;exitY=0.000;exitDx=0;exitDy=0;entryX=0.500;entryY=1.000;entryDx=0;entryDy=0;" parent="1" source="node17" target="node7" edge="1">
          <mxGeometry width="50" height="50" relative="1" as="geometry">
            <Array as="points">
              <mxPoint x="7401" y="2515" />
              <mxPoint x="7308" y="2515" />
              <mxPoint x="7308" y="2505" />
              <mxPoint x="7983" y="2505" />
            </Array>
          </mxGeometry>
        </mxCell>
        <mxCell id="edge25" value="" style="html=1;rounded=1;edgeStyle=orthogonalEdgeStyle;dashed=1;startArrow=none;endArrow=openThin;endSize=12;strokeColor=#595959;exitX=0.250;exitY=0.000;exitDx=0;exitDy=0;entryX=0.750;entryY=1.000;entryDx=0;entryDy=0;" parent="1" source="node17" target="node12" edge="1">
          <mxGeometry width="50" height="50" relative="1" as="geometry">
            <Array as="points">
              <mxPoint x="7206" y="2515" />
              <mxPoint x="7062" y="2515" />
              <mxPoint x="7062" y="2455" />
              <mxPoint x="7687" y="2455" />
              <mxPoint x="7687" y="653" />
              <mxPoint x="4183" y="653" />
            </Array>
          </mxGeometry>
        </mxCell>
        <mxCell id="edge51" value="" style="html=1;rounded=1;edgeStyle=orthogonalEdgeStyle;dashed=1;startArrow=none;endArrow=openThin;endSize=12;strokeColor=#595959;exitX=0.250;exitY=0.000;exitDx=0;exitDy=0;entryX=0.500;entryY=1.000;entryDx=0;entryDy=0;" parent="1" source="node17" target="node14" edge="1">
          <mxGeometry width="50" height="50" relative="1" as="geometry">
            <Array as="points">
              <mxPoint x="7206" y="2515" />
              <mxPoint x="7062" y="2515" />
              <mxPoint x="7062" y="2455" />
              <mxPoint x="7028" y="2455" />
            </Array>
          </mxGeometry>
        </mxCell>
        <mxCell id="edge41" value="" style="html=1;rounded=1;edgeStyle=orthogonalEdgeStyle;dashed=0;startArrow=diamondThinstartSize=12;endArrow=openThin;endSize=12;strokeColor=#595959;exitX=0.750;exitY=0.000;exitDx=0;exitDy=0;entryX=0.500;entryY=1.000;entryDx=0;entryDy=0;" parent="1" source="node17" target="node5" edge="1">
          <mxGeometry width="50" height="50" relative="1" as="geometry">
            <Array as="points">
              <mxPoint x="7401" y="2515" />
              <mxPoint x="7308" y="2515" />
              <mxPoint x="7308" y="2445" />
              <mxPoint x="7126" y="2445" />
              <mxPoint x="7126" y="1057" />
              <mxPoint x="6688" y="1057" />
            </Array>
          </mxGeometry>
        </mxCell>
        <mxCell id="edge32" value="" style="html=1;rounded=1;edgeStyle=orthogonalEdgeStyle;dashed=0;startArrow=diamondThinstartSize=12;endArrow=openThin;endSize=12;strokeColor=#595959;exitX=0.500;exitY=0.000;exitDx=0;exitDy=0;entryX=0.500;entryY=1.000;entryDx=0;entryDy=0;" parent="1" source="node94" target="node4" edge="1">
          <mxGeometry width="50" height="50" relative="1" as="geometry">
            <Array as="points">
              <mxPoint x="5530" y="-450" />
              <mxPoint x="4855" y="-450" />
            </Array>
          </mxGeometry>
        </mxCell>
        <mxCell id="edge53" value="" style="html=1;rounded=1;edgeStyle=orthogonalEdgeStyle;dashed=0;startArrow=diamondThinstartSize=12;endArrow=openThin;endSize=12;strokeColor=#595959;exitX=0.500;exitY=0.000;exitDx=0;exitDy=0;entryX=0.500;entryY=1.000;entryDx=0;entryDy=0;" parent="1" source="node43" target="node7" edge="1">
          <mxGeometry width="50" height="50" relative="1" as="geometry">
            <Array as="points">
              <mxPoint x="6915" y="3061" />
              <mxPoint x="8093" y="3061" />
              <mxPoint x="8093" y="2495" />
              <mxPoint x="7983" y="2495" />
            </Array>
          </mxGeometry>
        </mxCell>
        <mxCell id="edge37" value="" style="html=1;rounded=1;edgeStyle=orthogonalEdgeStyle;dashed=0;startArrow=diamondThinstartSize=12;endArrow=openThin;endSize=12;strokeColor=#595959;exitX=0.500;exitY=0.001;exitDx=0;exitDy=0;entryX=0.500;entryY=1.000;entryDx=0;entryDy=0;" parent="1" source="node43" target="node5" edge="1">
          <mxGeometry width="50" height="50" relative="1" as="geometry">
            <Array as="points">
              <mxPoint x="6915" y="1057" />
              <mxPoint x="6688" y="1057" />
            </Array>
          </mxGeometry>
        </mxCell>
        <mxCell id="edge109" value="" style="html=1;rounded=1;edgeStyle=orthogonalEdgeStyle;dashed=0;startArrow=diamondThinstartSize=12;endArrow=openThin;endSize=12;strokeColor=#595959;exitX=0.500;exitY=0.000;exitDx=0;exitDy=0;entryX=0.500;entryY=1.000;entryDx=0;entryDy=0;" parent="1" source="node43" target="node17" edge="1">
          <mxGeometry width="50" height="50" relative="1" as="geometry">
            <Array as="points">
              <mxPoint x="6915" y="3051" />
              <mxPoint x="6769" y="3051" />
              <mxPoint x="6769" y="3041" />
              <mxPoint x="7303" y="3041" />
            </Array>
          </mxGeometry>
        </mxCell>
        <mxCell id="edge89" value="" style="html=1;rounded=1;edgeStyle=orthogonalEdgeStyle;dashed=0;startArrow=diamondThinstartSize=12;endArrow=openThin;endSize=12;strokeColor=#595959;exitX=0.750;exitY=0.000;exitDx=0;exitDy=0;entryX=0.500;entryY=1.000;entryDx=0;entryDy=0;" parent="1" source="node84" target="node33" edge="1">
          <mxGeometry width="50" height="50" relative="1" as="geometry">
            <Array as="points">
              <mxPoint x="1279" y="2485" />
              <mxPoint x="219" y="2485" />
            </Array>
          </mxGeometry>
        </mxCell>
        <mxCell id="edge18" value="" style="html=1;rounded=1;edgeStyle=orthogonalEdgeStyle;dashed=0;startArrow=diamondThinstartSize=12;endArrow=openThin;endSize=12;strokeColor=#595959;exitX=0.750;exitY=0.000;exitDx=0;exitDy=0;entryX=0.250;entryY=1.000;entryDx=0;entryDy=0;" parent="1" source="node84" target="node12" edge="1">
          <mxGeometry width="50" height="50" relative="1" as="geometry">
            <Array as="points">
              <mxPoint x="1279" y="2495" />
              <mxPoint x="5318" y="2495" />
              <mxPoint x="5318" y="663" />
              <mxPoint x="876" y="663" />
              <mxPoint x="876" y="653" />
              <mxPoint x="4047" y="653" />
            </Array>
          </mxGeometry>
        </mxCell>
        <mxCell id="edge91" value="" style="html=1;rounded=1;edgeStyle=orthogonalEdgeStyle;dashed=0;startArrow=diamondThinstartSize=12;endArrow=openThin;endSize=12;strokeColor=#595959;exitX=0.500;exitY=0.000;exitDx=0;exitDy=0;entryX=0.500;entryY=1.000;entryDx=0;entryDy=0;" parent="1" source="node42" target="node75" edge="1">
          <mxGeometry width="50" height="50" relative="1" as="geometry">
            <Array as="points">
              <mxPoint x="1775" y="4036" />
              <mxPoint x="2852" y="4036" />
            </Array>
          </mxGeometry>
        </mxCell>
        <mxCell id="edge97" value="" style="html=1;rounded=1;edgeStyle=orthogonalEdgeStyle;dashed=0;startArrow=diamondThinstartSize=12;endArrow=openThin;endSize=12;strokeColor=#595959;exitX=0.750;exitY=0.000;exitDx=0;exitDy=0;entryX=0.500;entryY=1.000;entryDx=0;entryDy=0;" parent="1" source="node75" target="node30" edge="1">
          <mxGeometry width="50" height="50" relative="1" as="geometry">
            <Array as="points">
              <mxPoint x="2950" y="3061" />
              <mxPoint x="4382" y="3061" />
              <mxPoint x="4382" y="2971" />
              <mxPoint x="4271" y="2971" />
              <mxPoint x="4271" y="2465" />
              <mxPoint x="4714" y="2465" />
            </Array>
          </mxGeometry>
        </mxCell>
        <mxCell id="edge76" value="" style="html=1;rounded=1;edgeStyle=orthogonalEdgeStyle;dashed=0;startArrow=diamondThinstartSize=12;endArrow=openThin;endSize=12;strokeColor=#595959;exitX=0.750;exitY=0.000;exitDx=0;exitDy=0;entryX=0.500;entryY=1.000;entryDx=0;entryDy=0;" parent="1" source="node75" target="node5" edge="1">
          <mxGeometry width="50" height="50" relative="1" as="geometry">
            <Array as="points">
              <mxPoint x="2950" y="3061" />
              <mxPoint x="4382" y="3061" />
              <mxPoint x="4382" y="2971" />
              <mxPoint x="4494" y="2971" />
              <mxPoint x="4494" y="2505" />
              <mxPoint x="5394" y="2505" />
              <mxPoint x="5394" y="1057" />
              <mxPoint x="6688" y="1057" />
            </Array>
          </mxGeometry>
        </mxCell>
        <mxCell id="edge34" value="" style="html=1;rounded=1;edgeStyle=orthogonalEdgeStyle;dashed=1;startArrow=none;endArrow=openThin;endSize=12;strokeColor=#595959;exitX=0.250;exitY=0.000;exitDx=0;exitDy=0;entryX=0.750;entryY=1.000;entryDx=0;entryDy=0;" parent="1" source="node75" target="node84" edge="1">
          <mxGeometry width="50" height="50" relative="1" as="geometry">
            <Array as="points">
              <mxPoint x="2754" y="2971" />
              <mxPoint x="1279" y="2971" />
            </Array>
          </mxGeometry>
        </mxCell>
        <mxCell id="edge103" value="" style="html=1;rounded=1;edgeStyle=orthogonalEdgeStyle;dashed=0;startArrow=diamondThinstartSize=12;endArrow=openThin;endSize=12;strokeColor=#595959;exitX=0.750;exitY=0.000;exitDx=0;exitDy=0;entryX=0.500;entryY=1.000;entryDx=0;entryDy=0;" parent="1" source="node75" target="node21" edge="1">
          <mxGeometry width="50" height="50" relative="1" as="geometry">
            <Array as="points">
              <mxPoint x="2950" y="3061" />
              <mxPoint x="4382" y="3061" />
              <mxPoint x="4382" y="2991" />
              <mxPoint x="4072" y="2991" />
            </Array>
          </mxGeometry>
        </mxCell>
        <mxCell id="edge62" value="" style="html=1;rounded=1;edgeStyle=orthogonalEdgeStyle;dashed=0;startArrow=diamondThinstartSize=12;endArrow=openThin;endSize=12;strokeColor=#595959;exitX=0.500;exitY=0.000;exitDx=0;exitDy=0;entryX=0.500;entryY=1.001;entryDx=0;entryDy=0;" parent="1" source="node71" target="node47" edge="1">
          <mxGeometry width="50" height="50" relative="1" as="geometry">
            <Array as="points">
              <mxPoint x="8514" y="3061" />
              <mxPoint x="8307" y="3061" />
            </Array>
          </mxGeometry>
        </mxCell>
        <mxCell id="edge118" value="" style="html=1;rounded=1;edgeStyle=orthogonalEdgeStyle;dashed=0;startArrow=diamondThinstartSize=12;endArrow=openThin;endSize=12;strokeColor=#595959;exitX=0.500;exitY=0.000;exitDx=0;exitDy=0;entryX=0.500;entryY=1.001;entryDx=0;entryDy=0;" parent="1" source="node71" target="node82" edge="1">
          <mxGeometry width="50" height="50" relative="1" as="geometry">
            <Array as="points">
              <mxPoint x="8514" y="3061" />
              <mxPoint x="8721" y="3061" />
            </Array>
          </mxGeometry>
        </mxCell>
        <mxCell id="UntQIvmzt29eUhZicr50-13" value="" style="endArrow=open;endFill=1;endSize=12;html=1;rounded=0;" edge="1" parent="1">
          <mxGeometry width="160" relative="1" as="geometry">
            <mxPoint x="7018" y="4220" as="sourcePoint" />
            <mxPoint x="7170" y="4220" as="targetPoint" />
          </mxGeometry>
        </mxCell>
      </root>
    </mxGraphModel>
  </diagram>
</mxfile>
